<svg width="128" height="128" viewBox="0 0 128 128" fill="none" xmlns="http://www.w3.org/2000/svg">
<g clip-path="url(#clip0_6_1107)">
<path d="M19.5 35L2.25 46.375L55.625 81.266H72.25L126.375 47L108.5 36L19.5 35Z" fill="#E1EBF4"/>
<path d="M20.125 4.62482V57.9998L55.25 81.9998C55.25 81.9998 60.125 78.6248 64 79.2498C66.8521 79.8255 69.6229 80.7491 72.25 81.9998L108.625 57.9998V7.74982C108.625 7.74982 108.625 1.87482 101.25 1.87482H24.25C24.25 1.87482 19.25 1.74982 20.125 4.62482Z" fill="#81D9E3"/>
<path d="M127.94 46.53C127.923 46.4877 127.91 46.4443 127.9 46.4C127.86 46.2792 127.81 46.1621 127.75 46.05C127.73 46.02 127.72 45.99 127.7 45.96C127.618 45.8228 127.521 45.6953 127.41 45.58C127.382 45.5624 127.355 45.5424 127.33 45.52C127.26 45.46 127.2 45.4 127.12 45.34L110 33.75V6C109.999 4.40909 109.366 2.8837 108.241 1.75875C107.116 0.633806 105.591 0.00126062 104 0L24 0C22.4091 0.00126062 20.8837 0.633806 19.7588 1.75875C18.6338 2.8837 18.0013 4.40909 18 6V33.02L0.9 44.33C0.817017 44.3853 0.739944 44.4489 0.67 44.52C0.65 44.54 0.62 44.55 0.6 44.57C0.489508 44.6818 0.392206 44.806 0.31 44.94C0.29 44.98 0.27 45.01 0.25 45.05C0.189901 45.1586 0.139699 45.2724 0.1 45.39C0.09005 45.43 0.08 45.47 0.07 45.52C0.0264768 45.673 0.00294785 45.831 0 45.99L0 122C0.00126062 123.591 0.633806 125.116 1.75875 126.241C2.8837 127.366 4.40909 127.999 6 128H122C124.9 128 128 125.9 128 120V46.99C127.995 46.8351 127.975 46.6811 127.94 46.53ZM18 37.82V49.38L22 52.03V6C22.0016 5.47005 22.2128 4.96224 22.5875 4.58751C22.9622 4.21277 23.47 4.00156 24 4H104C104.53 4.00156 105.038 4.21277 105.412 4.58751C105.787 4.96224 105.998 5.47005 106 6V52.77L110 50.18V38.58L122.37 46.96L71.75 79.63C69.4609 78.1138 66.7813 77.2936 64.0357 77.2688C61.2901 77.2439 58.5962 78.0155 56.28 79.49L41.08 69.44C40.033 69.0314 39.0852 68.4041 38.3 67.6L5.63 46L18 37.82ZM4 49.72L52.88 82.03L4 119.68V49.72ZM6 124C5.72275 123.995 5.44984 123.93 5.2 123.81L57.66 83.4C59.4617 82.0064 61.6776 81.2553 63.9553 81.2662C66.233 81.2771 68.4417 82.0493 70.23 83.46L121.77 124H6ZM124 120C124 120.18 123.99 120.41 123.98 120.65L75.12 82.21L124 50.67V120Z" fill="#2D4356"/>
<path d="M52.88 82.0297L4 119.68V49.7197L52.88 82.0297Z" fill="#FFDB80"/>
<path d="M124 50.6699V120C124 120.18 123.99 120.41 123.98 120.65L75.12 82.2099L124 50.6699Z" fill="#FFDB80"/>
<path d="M121.77 124H5.99995C5.7227 123.995 5.44979 123.93 5.19995 123.81L57.66 83.3995C59.4616 82.006 61.6776 81.2549 63.9553 81.2657C66.233 81.2766 68.4417 82.0488 70.23 83.4595L121.77 124Z" fill="#F9BF64"/>
<path d="M28 13H42C42.5304 13 43.0391 12.7893 43.4142 12.4142C43.7893 12.0391 44 11.5304 44 11C44 10.4696 43.7893 9.96086 43.4142 9.58579C43.0391 9.21071 42.5304 9 42 9H28C27.4696 9 26.9609 9.21071 26.5858 9.58579C26.2107 9.96086 26 10.4696 26 11C26 11.5304 26.2107 12.0391 26.5858 12.4142C26.9609 12.7893 27.4696 13 28 13ZM52 19C52 18.4696 51.7893 17.9609 51.4142 17.5858C51.0391 17.2107 50.5304 17 50 17H28C27.4696 17 26.9609 17.2107 26.5858 17.5858C26.2107 17.9609 26 18.4696 26 19C26 19.5304 26.2107 20.0391 26.5858 20.4142C26.9609 20.7893 27.4696 21 28 21H50C50.5304 21 51.0391 20.7893 51.4142 20.4142C51.7893 20.0391 52 19.5304 52 19ZM86.45 40.81C87.2287 39.9454 87.7407 38.8741 87.9243 37.7251C88.108 36.5761 87.9555 35.3986 87.4852 34.3343C87.0149 33.27 86.2469 32.3645 85.2736 31.7267C84.3004 31.089 83.1635 30.7463 82 30.74H71.82C72.7606 27.8578 73.3515 24.8731 73.58 21.85L73.67 21.0301C73.8246 19.7108 73.4879 18.3808 72.7243 17.2939C71.9606 16.2071 70.8235 15.4395 69.5299 15.1378C68.2363 14.836 66.8769 15.0212 65.7112 15.658C64.5455 16.2948 63.6551 17.3385 63.21 18.59C61.53 23.21 58.24 28.9901 52.16 30.3001C52.12 30.3101 52.09 30.3201 51.18 30.5501C50.802 30.0676 50.3194 29.6774 49.7685 29.4089C49.2176 29.1403 48.6129 29.0005 48 29H44C42.9552 28.9847 41.9471 29.3847 41.1971 30.1122C40.447 30.8397 40.0165 31.8352 40 32.88V61.12C40.0165 62.1648 40.447 63.1603 41.1971 63.8878C41.9471 64.6153 42.9552 65.0153 44 65H48C48.6501 65.0028 49.2913 64.8489 49.8692 64.5512C50.4472 64.2535 50.9448 63.8209 51.32 63.29C58.7783 65.7849 66.5956 67.0382 74.46 67H82C83.163 66.9951 84.2997 66.6537 85.273 66.017C86.2462 65.3803 87.0145 64.4756 87.4849 63.412C87.9554 62.3484 88.108 61.1714 87.9244 60.023C87.7408 58.8746 87.2287 57.8038 86.45 56.94C87.4478 55.8329 88 54.3954 88 52.905C88 51.4146 87.4478 49.9771 86.45 48.87C87.4477 47.7648 88 46.3289 88 44.84C88 43.3511 87.4477 41.9152 86.45 40.81ZM48 61L44 60.99V33L48 33.01V61ZM78 42.81H82C82.5332 42.8179 83.0419 43.0352 83.4162 43.415C83.7905 43.7949 84.0003 44.3067 84.0003 44.84C84.0003 45.3733 83.7905 45.8851 83.4162 46.265C83.0419 46.6448 82.5332 46.8621 82 46.87H78C77.4696 46.87 76.9609 47.0807 76.5858 47.4558C76.2107 47.8309 76 48.3396 76 48.87C76 49.4004 76.2107 49.9091 76.5858 50.2842C76.9609 50.6593 77.4696 50.87 78 50.87H82C82.5336 50.8793 83.0421 51.0978 83.4162 51.4784C83.7902 51.8591 83.9998 52.3714 83.9998 52.905C83.9998 53.4386 83.7902 53.9509 83.4162 54.3316C83.0421 54.7122 82.5336 54.9307 82 54.94H78C77.4696 54.94 76.9609 55.1507 76.5858 55.5258C76.2107 55.9009 76 56.4096 76 56.94C76 57.4704 76.2107 57.9791 76.5858 58.3542C76.9609 58.7293 77.4696 58.94 78 58.94H82C82.5332 58.9478 83.0419 59.1652 83.4162 59.545C83.7905 59.9249 84.0003 60.4367 84.0003 60.97C84.0003 61.5033 83.7905 62.0151 83.4162 62.395C83.0419 62.7748 82.5332 62.9921 82 63H74.46C66.8188 63.0352 59.2261 61.7844 52 59.3V34.47C52.55 34.33 52.9 34.24 52.92 34.23C59.21 32.87 64.07 27.94 66.97 19.96C67.0807 19.6292 67.3107 19.3516 67.6151 19.1813C67.9195 19.011 68.2765 18.9602 68.6163 19.0389C68.9561 19.1176 69.2544 19.3202 69.4529 19.6069C69.6515 19.8937 69.736 20.2442 69.69 20.59L69.6 21.41C69.3375 25.0639 68.5041 28.6541 67.13 32.05C67.0151 32.3505 66.976 32.6746 67.0161 32.9938C67.0562 33.3129 67.1743 33.6173 67.36 33.88C67.5426 34.1462 67.7874 34.3637 68.0733 34.5135C68.3591 34.6634 68.6772 34.7412 69 34.74H82C82.5336 34.7493 83.0421 34.9678 83.4162 35.3484C83.7902 35.7291 83.9998 36.2414 83.9998 36.775C83.9998 37.3086 83.7902 37.8209 83.4162 38.2016C83.0421 38.5822 82.5336 38.8007 82 38.81H78C77.4696 38.81 76.9609 39.0207 76.5858 39.3958C76.2107 39.7709 76 40.2796 76 40.81C76 41.3404 76.2107 41.8491 76.5858 42.2242C76.9609 42.5993 77.4696 42.81 78 42.81Z" fill="#2D4356"/>
<path d="M48 33.01V61L44 60.99V33L48 33.01Z" fill="#FC785E"/>
<path d="M76 48.8702C75.9999 49.1328 76.0516 49.3929 76.1521 49.6356C76.2526 49.8783 76.3999 50.0988 76.5856 50.2845C76.7714 50.4703 76.9919 50.6176 77.2346 50.7181C77.4772 50.8186 77.7373 50.8702 78 50.8702H82C82.5336 50.8795 83.0421 51.098 83.4162 51.4786C83.7902 51.8592 83.9998 52.3715 83.9998 52.9052C83.9998 53.4388 83.7902 53.9511 83.4162 54.3317C83.0421 54.7124 82.5336 54.9309 82 54.9402H78C77.4696 54.9402 76.9609 55.1509 76.5858 55.526C76.2107 55.901 76 56.4097 76 56.9402C76 57.4706 76.2107 57.9793 76.5858 58.3544C76.9609 58.7295 77.4696 58.9402 78 58.9402H82C82.5332 58.948 83.0419 59.1654 83.4162 59.5452C83.7905 59.925 84.0003 60.4369 84.0003 60.9702C84.0003 61.5034 83.7905 62.0153 83.4162 62.3951C83.0419 62.775 82.5332 62.9923 82 63.0002H74.46C66.8188 63.0354 59.2261 61.7846 52 59.3002V34.4702C52.55 34.3302 52.9 34.2402 52.92 34.2302C59.21 32.8702 64.07 27.9402 66.97 19.9602C67.0807 19.6294 67.3107 19.3518 67.6151 19.1815C67.9195 19.0111 68.2765 18.9604 68.6163 19.0391C68.9561 19.1178 69.2544 19.3203 69.4529 19.6071C69.6515 19.8939 69.736 20.2444 69.69 20.5902L69.6 21.4102C69.3375 25.0641 68.5041 28.6543 67.13 32.0502C67.0151 32.3506 66.976 32.6748 67.0161 32.9939C67.0562 33.3131 67.1743 33.6175 67.36 33.8802C67.5426 34.1463 67.7874 34.3638 68.0733 34.5137C68.3591 34.6636 68.6772 34.7413 69 34.7402H82C82.5336 34.7495 83.0421 34.968 83.4162 35.3486C83.7902 35.7292 83.9998 36.2415 83.9998 36.7752C83.9998 37.3088 83.7902 37.8211 83.4162 38.2017C83.0421 38.5824 82.5336 38.8009 82 38.8102H78C77.4696 38.8102 76.9609 39.0209 76.5858 39.396C76.2107 39.771 76 40.2797 76 40.8102C76 41.3406 76.2107 41.8493 76.5858 42.2244C76.9609 42.5995 77.4696 42.8102 78 42.8102H82C82.5332 42.818 83.0419 43.0354 83.4162 43.4152C83.7905 43.795 84.0003 44.3069 84.0003 44.8402C84.0003 45.3734 83.7905 45.8853 83.4162 46.2652C83.0419 46.645 82.5332 46.8623 82 46.8702H78C77.47 46.8717 76.9622 47.0829 76.5875 47.4577C76.2128 47.8324 76.0016 48.3402 76 48.8702Z" fill="#E1EBF4"/>
<path opacity="0.5" d="M122.37 46.9601L120.86 47.9401L110 40.5801V38.5801L122.37 46.9601Z" fill="white"/>
<path opacity="0.5" d="M18 37.8203V39.8203L7.14 47.0003L5.63 46.0003L18 37.8203Z" fill="white"/>
<path opacity="0.45" d="M52.88 82.0303L4 119.68V117.68L51.48 81.1104L52.88 82.0303Z" fill="#AD9359"/>
<path opacity="0.6" d="M121.77 124H119.23L70.23 85.4595C68.4417 84.0488 66.233 83.2766 63.9553 83.2657C61.6776 83.2549 59.4616 84.006 57.66 85.3995L7.54995 124H5.99995C5.7227 123.995 5.44979 123.93 5.19995 123.81L57.66 83.3995C59.4616 82.006 61.6776 81.2549 63.9553 81.2657C66.233 81.2766 68.4417 82.0488 70.23 83.4595L121.77 124Z" fill="#F4DCBD"/>
<path opacity="0.45" d="M124 118V120C124 120.18 123.99 120.41 123.98 120.65L75.12 82.2096L76.52 81.3096L123.98 118.65C123.99 118.41 124 118.18 124 118Z" fill="#AD9359"/>
<path opacity="0.3" d="M121.77 124H5.99995C5.7227 123.995 5.44979 123.93 5.19995 123.81L7.54995 122H119.23L121.77 124Z" fill="#846134"/>
<path opacity="0.3" d="M106 6V8C105.998 7.47005 105.787 6.96224 105.412 6.58751C105.038 6.21277 104.53 6.00156 104 6H24C23.47 6.00156 22.9622 6.21277 22.5875 6.58751C22.2128 6.96224 22.0016 7.47005 22 8V6C22.0016 5.47005 22.2128 4.96224 22.5875 4.58751C22.9622 4.21277 23.47 4.00156 24 4H104C104.53 4.00156 105.038 4.21277 105.412 4.58751C105.787 4.96224 105.998 5.47005 106 6Z" fill="#E8FBFC"/>
<path opacity="0.3" d="M48 33.01V35.01L44 35V33L48 33.01Z" fill="#F9DBD7"/>
<path opacity="0.5" d="M48 59.0002V61.0002L44 60.9902V58.9902L48 59.0002Z" fill="#A54B3F"/>
<path opacity="0.5" d="M84 60.9698C84.003 61.5039 83.7942 62.0174 83.4193 62.3979C83.0445 62.7784 82.5341 62.9948 82 62.9998H74.46C66.8188 63.035 59.2261 61.7842 52 59.2998V57.2998C59.2261 59.7842 66.8188 61.035 74.46 60.9998H82C82.3552 60.9975 82.7035 60.901 83.0092 60.72C83.3149 60.539 83.5671 60.2802 83.74 59.9698C83.9133 60.2744 84.003 60.6194 84 60.9698Z" fill="#9FA5AA"/>
<path opacity="0.5" d="M69.69 20.5902L69.6 21.4102C69.59 21.5502 69.57 21.6802 69.56 21.8102C69.4642 21.6037 69.3193 21.4238 69.138 21.2861C68.9568 21.1484 68.7446 21.0571 68.52 21.0202C68.1926 20.9718 67.8586 21.0392 67.5756 21.2108C67.2926 21.3824 67.0784 21.6475 66.97 21.9602C64.07 29.9402 59.21 34.8702 52.92 36.2302C52.9 36.2402 52.55 36.3302 52 36.4702V34.4702C52.55 34.3302 52.9 34.2402 52.92 34.2302C59.21 32.8702 64.07 27.9402 66.97 19.9602C67.0807 19.6294 67.3107 19.3518 67.6151 19.1815C67.9195 19.0111 68.2765 18.9604 68.6163 19.0391C68.9561 19.1178 69.2544 19.3203 69.4529 19.6071C69.6515 19.8939 69.736 20.2444 69.69 20.5902Z" fill="white"/>
</g>
<defs>
<clipPath id="clip0_6_1107">
<rect width="128" height="128" fill="white"/>
</clipPath>
</defs>
</svg>
