<svg width="60" height="60" viewBox="0 0 60 60" fill="none" xmlns="http://www.w3.org/2000/svg">
<path d="M29.999 55.0021H7.49904C7.00461 55.0021 6.52129 54.8555 6.1102 54.5808C5.6991 54.3061 5.3787 53.9157 5.18951 53.4589C5.00031 53.0021 4.95083 52.4994 5.04731 52.0145C5.14379 51.5296 5.3819 51.0842 5.73154 50.7346L10.6413 45.8248C7.0482 41.4298 5.05783 35.9428 4.99751 30.2662C4.93718 24.5897 6.81049 19.0616 10.3093 14.5912C13.8082 10.1208 18.7243 6.97419 24.249 5.66891C29.7738 4.36363 35.5783 4.97739 40.7078 7.40926C45.8374 9.84113 49.9867 13.9463 52.4732 19.0496C54.9598 24.1529 55.6355 29.9505 54.3893 35.4889C53.1431 41.0273 50.0492 45.9767 45.6164 49.5231C41.1836 53.0695 35.6759 55.0018 29.999 55.0021Z" fill="#B2B1FF"/>
<path d="M30 40C29.6717 40.0001 29.3465 39.9355 29.0432 39.8099C28.7398 39.6843 28.4642 39.5001 28.232 39.268C27.9999 39.0358 27.8157 38.7602 27.6901 38.4568C27.5645 38.1535 27.4999 37.8283 27.5 37.5V30C27.5 29.337 27.7634 28.7011 28.2322 28.2322C28.7011 27.7634 29.337 27.5 30 27.5C30.663 27.5 31.2989 27.7634 31.7678 28.2322C32.2366 28.7011 32.5 29.337 32.5 30V37.5C32.5001 37.8283 32.4355 38.1535 32.3099 38.4568C32.1843 38.7602 32.0001 39.0358 31.768 39.268C31.5358 39.5001 31.2602 39.6843 30.9568 39.8099C30.6535 39.9355 30.3283 40.0001 30 40Z" fill="#6563FF"/>
<path d="M30 25C31.3807 25 32.5 23.8807 32.5 22.5C32.5 21.1193 31.3807 20 30 20C28.6193 20 27.5 21.1193 27.5 22.5C27.5 23.8807 28.6193 25 30 25Z" fill="#6563FF"/>
</svg>
