<svg width="24" height="24" viewBox="0 0 24 24" fill="none" xmlns="http://www.w3.org/2000/svg">
<path d="M20.1366 22H4.0223C3.49178 21.9999 2.97063 21.8602 2.51122 21.5949C2.0518 21.3296 1.67029 20.9481 1.40502 20.4886C1.13976 20.0292 1.00007 19.508 1 18.9775C0.99993 18.447 1.13948 17.9258 1.40463 17.4663L9.46175 3.51123C9.72705 3.05176 10.1086 2.67021 10.5681 2.40493C11.0276 2.13966 11.5489 2 12.0794 2C12.61 2 13.1312 2.13966 13.5907 2.40493C14.0502 2.67021 14.4318 3.05176 14.6971 3.51123L22.7542 17.4663C23.0194 17.9258 23.1589 18.447 23.1589 18.9775C23.1588 19.508 23.0191 20.0292 22.7538 20.4886C22.4886 20.9481 22.107 21.3296 21.6476 21.5949C21.1882 21.8602 20.6671 21.9999 20.1366 22Z" fill="#B2B1FF"/>
<path d="M12.0781 18C12.6304 18 13.0781 17.5523 13.0781 17C13.0781 16.4477 12.6304 16 12.0781 16C11.5258 16 11.0781 16.4477 11.0781 17C11.0781 17.5523 11.5258 18 12.0781 18Z" fill="#6563FF"/>
<path d="M12.0781 14C11.8129 14 11.5586 13.8946 11.371 13.7071C11.1835 13.5196 11.0781 13.2652 11.0781 13V9C11.0781 8.73478 11.1835 8.48043 11.371 8.29289C11.5586 8.10536 11.8129 8 12.0781 8C12.3433 8 12.5977 8.10536 12.7852 8.29289C12.9728 8.48043 13.0781 8.73478 13.0781 9V13C13.0781 13.2652 12.9728 13.5196 12.7852 13.7071C12.5977 13.8946 12.3433 14 12.0781 14Z" fill="#6563FF"/>
</svg>
