<svg width="28" height="29" viewBox="0 0 28 29" fill="none" xmlns="http://www.w3.org/2000/svg">
<path d="M10.5245 24.4347H5.30707C5.07644 24.4347 4.85527 24.3431 4.69219 24.18C4.52911 24.017 4.4375 23.7958 4.4375 23.5652V18.708C4.4375 18.5938 4.45999 18.4807 4.50369 18.3752C4.54739 18.2697 4.61144 18.1738 4.69219 18.0931L17.7357 5.04961C17.8987 4.88654 18.1199 4.79492 18.3505 4.79492C18.5812 4.79492 18.8023 4.88654 18.9654 5.04961L23.8226 9.90682C23.9857 10.0699 24.0773 10.2911 24.0773 10.5217C24.0773 10.7523 23.9857 10.9735 23.8226 11.1366L10.5245 24.4347Z" stroke="#6563FF" stroke-width="2" stroke-linecap="round" stroke-linejoin="round"/>
<path d="M14.8726 7.91211L20.9595 13.9991" stroke="#6563FF" stroke-width="2" stroke-linecap="round" stroke-linejoin="round"/>
<path d="M23.5683 24.434H10.5248L4.49316 18.4023" stroke="#6563FF" stroke-width="2" stroke-linecap="round" stroke-linejoin="round"/>
</svg>
