<svg width="32" height="32" viewBox="0 0 32 32" fill="none" xmlns="http://www.w3.org/2000/svg">
<path d="M13.12 22.7733C12.9449 22.7735 12.7714 22.7391 12.6096 22.672C12.4479 22.605 12.3009 22.5066 12.1773 22.3826L7.05752 17.2629C6.93256 17.1393 6.83325 16.9923 6.76531 16.8303C6.69737 16.6682 6.66213 16.4943 6.66163 16.3186C6.66112 16.1429 6.69536 15.9688 6.76237 15.8064C6.82937 15.6439 6.92783 15.4963 7.05208 15.3721C7.17633 15.2478 7.32391 15.1494 7.48635 15.0824C7.64878 15.0153 7.82286 14.9811 7.99858 14.9816C8.17429 14.9821 8.34818 15.0173 8.51023 15.0852C8.67228 15.1532 8.81931 15.2525 8.94285 15.3774L13.12 19.5545L23.0575 9.61702C23.3077 9.36786 23.6466 9.22814 23.9997 9.22852C24.3528 9.22889 24.6913 9.36934 24.941 9.61903C25.1907 9.86873 25.3311 10.2073 25.3314 10.5604C25.3318 10.9135 25.192 11.2523 24.9429 11.5025L14.0627 22.3827C13.939 22.5067 13.7921 22.605 13.6303 22.6721C13.4685 22.7391 13.2951 22.7735 13.12 22.7733Z" fill="#6563FF"/>
</svg>

